<?xml version="1.0" encoding="utf-8"?>
<!-- Generator: Adobe Illustrator 22.1.0, SVG Export Plug-In . SVG Version: 6.00 Build 0)  -->
<svg version="1.1" id="Layer_1" xmlns="http://www.w3.org/2000/svg" xmlns:xlink="http://www.w3.org/1999/xlink" x="0px" y="0px"
	 viewBox="0 0 81.7 81.7" style="enable-background:new 0 0 81.7 81.7;" xml:space="preserve">
<style type="text/css">
	.st0{fill:#A45EDB;}
</style>
<g>
	<path class="st0" d="M60.8,6.2C41.7-4.9,17.2,1.7,6.2,20.8C-4.9,39.9,1.7,64.4,20.8,75.4s43.6,4.5,54.6-14.6
		C86.5,41.7,79.9,17.2,60.8,6.2z M70.3,57.8c-3,5.2-7.2,9.3-12,12.2l-11-19.1c-1.9,1.2-4.1,1.9-6.5,1.9c-2.3,0-4.4-0.7-6.3-1.8
		L23.6,70C13.1,63.8,7.2,52.8,7.1,41.4h21.8c0-0.2,0-0.4,0-0.5c0-4.6,2.6-8.7,6.5-10.6l-11-19c9.9-5.5,22.4-5.9,33,0L46.5,30.2
		c3.7,2,6.3,6,6.3,10.6c0,0.2,0,0.4,0,0.5h22C74.7,46.9,73.3,52.6,70.3,57.8z"/>
</g>
<circle class="st0" cx="40.8" cy="40.8" r="10"/>
</svg>
