<?xml version="1.0" encoding="utf-8"?>
<!-- Generator: Adobe Illustrator 22.1.0, SVG Export Plug-In . SVG Version: 6.00 Build 0)  -->
<svg version="1.1" id="Layer_1" xmlns="http://www.w3.org/2000/svg" xmlns:xlink="http://www.w3.org/1999/xlink" x="0px" y="0px"
	 viewBox="0 0 81 81" style="enable-background:new 0 0 81 81;" xml:space="preserve">
<style type="text/css">
	.st0{fill:#DD8A3E;}
</style>
<g>
	<path class="st0" d="M60.5,5.9C41.4-5.2,16.9,1.4,5.9,20.5C-5.2,39.6,1.4,64.1,20.5,75.1s43.6,4.5,54.6-14.6
		C86.2,41.4,79.6,16.9,60.5,5.9z M70,57.5c-3,5.2-7.2,9.3-12,12.2L47,50.6c-1.9,1.2-4.1,1.9-6.5,1.9c-2.3,0-4.4-0.7-6.3-1.8
		l-10.9,19C12.8,63.5,6.9,52.5,6.8,41.1h21.8c0-0.2,0-0.4,0-0.5c0-4.6,2.6-8.7,6.5-10.6l-11-19c9.9-5.5,22.4-5.9,33,0L46.2,29.9
		c3.7,2,6.3,6,6.3,10.6c0,0.2,0,0.4,0,0.5h22C74.4,46.6,73,52.3,70,57.5z"/>
</g>
<circle class="st0" cx="40.5" cy="40.5" r="10"/>
</svg>
