<?xml version="1.0" encoding="utf-8"?>
<!-- Generator: Adobe Illustrator 22.1.0, SVG Export Plug-In . SVG Version: 6.00 Build 0)  -->
<svg version="1.1" id="Layer_1" xmlns="http://www.w3.org/2000/svg" xmlns:xlink="http://www.w3.org/1999/xlink" x="0px" y="0px"
	 viewBox="0 0 81.2 81.2" style="enable-background:new 0 0 81.2 81.2;" xml:space="preserve">
<style type="text/css">
	.st0{fill:#C72BBF;}
</style>
<g>
	<path class="st0" d="M60.6,6C41.5-5.1,17,1.5,6,20.6C-5.1,39.7,1.5,64.2,20.6,75.2s43.6,4.5,54.6-14.6C86.3,41.5,79.7,17,60.6,6z
		 M70.1,57.6c-3,5.2-7.2,9.3-12,12.2l-11-19.1c-1.9,1.2-4.1,1.9-6.5,1.9c-2.3,0-4.4-0.7-6.3-1.8l-10.9,19C12.9,63.6,7,52.6,6.9,41.2
		h21.8c0-0.2,0-0.4,0-0.5c0-4.6,2.6-8.7,6.5-10.6l-11-19c9.9-5.5,22.4-5.9,33,0L46.3,30c3.7,2,6.3,6,6.3,10.6c0,0.2,0,0.4,0,0.5h22
		C74.5,46.7,73.1,52.4,70.1,57.6z"/>
</g>
<circle class="st0" cx="40.6" cy="40.6" r="10"/>
</svg>
